<mxfile host="app.diagrams.net" modified="2023-10-13T08:13:01.434Z" agent="Mozilla/5.0 (Macintosh; Intel Mac OS X 10_15_7) AppleWebKit/605.1.15 (KHTML, like Gecko) Version/16.6 Safari/605.1.15" version="22.0.4" etag="tY1ptYuMUBiY_3Jy5NLf" type="github">
  <diagram name="Page-1" id="_heDXSAuoa_vM5UPK9kQ">
    <mxGraphModel>
      <root>
        <mxCell id="0" />
        <mxCell id="1" parent="0" />
      </root>
    </mxGraphModel>
  </diagram>
</mxfile>
